<?xml version="1.0" standalone="no"?><!DOCTYPE svg PUBLIC "-//W3C//DTD SVG 1.1//EN" "http://www.w3.org/Graphics/SVG/1.1/DTD/svg11.dtd"><svg t="1616938474216" class="icon" viewBox="0 0 1024 1024" version="1.1" xmlns="http://www.w3.org/2000/svg" p-id="1235" xmlns:xlink="http://www.w3.org/1999/xlink" width="200" height="200"><defs><style type="text/css"></style></defs><path d="M511.488 183.808c-123.392 0-223.744 100.352-223.744 223.744s100.352 223.744 223.744 223.744 223.744-100.352 223.744-223.744-99.84-223.744-223.744-223.744z m0 379.904c-83.968 0-152.064-68.096-152.064-152.064s68.096-152.064 152.064-152.064 152.064 68.096 152.064 152.064-68.096 152.064-152.064 152.064z" fill="#d81e06" p-id="1236"></path><path d="M511.488 638.976c-127.488 0-231.424-103.936-231.424-231.424S384 176.128 511.488 176.128c127.488 0 231.424 103.936 231.424 231.424s-103.936 231.424-231.424 231.424z m0-447.488c-119.296 0-216.064 96.768-216.064 216.064s96.768 216.064 216.064 216.064 216.064-96.768 216.064-216.064-96.768-216.064-216.064-216.064z m0 379.904c-88.064 0-159.744-71.68-159.744-159.744s71.68-159.744 159.744-159.744 159.744 71.68 159.744 159.744-71.68 159.744-159.744 159.744z m0-303.616c-79.36 0-144.384 64.512-144.384 144.384s64.512 144.384 144.384 144.384 144.384-64.512 144.384-144.384-65.024-144.384-144.384-144.384z" fill="#d81e06" p-id="1237"></path><path d="M714.752 895.488H321.536c-17.408 0-31.744-14.336-31.744-31.744L177.664 407.552h669.184l-99.84 456.192c-0.512 17.408-14.848 31.744-32.256 31.744z" fill="#d81e06" p-id="1238"></path><path d="M714.752 903.168H321.536c-21.504 0-38.912-17.408-39.424-38.4L167.424 399.872h688.64l-101.888 464.384c-0.512 21.504-17.92 38.912-39.424 38.912z m-527.36-487.936l110.08 447.488v1.024c0 13.312 10.752 24.064 24.064 24.064h393.216c13.312 0 24.064-10.752 24.064-24.064v-1.536l97.792-446.464H187.392z" fill="#d81e06" p-id="1239"></path><path d="M886.784 473.088H137.216c-25.6 0-46.08-20.48-46.08-46.08s20.48-46.08 46.08-46.08h749.568c25.6 0 46.08 20.48 46.08 46.08 0 25.088-20.48 46.08-46.08 46.08z" fill="#d81e06" p-id="1240"></path><path d="M886.784 480.768H137.216c-29.696 0-53.76-24.064-53.76-53.76S107.52 372.736 137.216 372.736h749.568c29.696 0 53.76 24.064 53.76 53.76s-24.064 54.272-53.76 54.272zM137.216 388.096c-20.992 0-38.4 17.408-38.4 38.4s17.408 38.4 38.4 38.4h749.568c20.992 0 38.4-17.408 38.4-38.4s-17.408-38.4-38.4-38.4H137.216z" fill="#d81e06" p-id="1241"></path><path d="M404.48 809.984c-15.36 3.584-30.208-6.144-33.792-21.504L327.68 597.504c-3.584-15.36 6.144-30.208 21.504-33.792 15.36-3.584 30.208 6.144 33.792 21.504l43.008 191.488c3.072 14.848-6.144 29.696-21.504 33.28z" fill="#d81e06" p-id="1242"></path><path d="M398.336 815.616c-15.36 0-29.184-10.752-32.768-26.112L322.56 598.016c-4.096-17.92 7.168-35.84 25.088-39.936 8.704-2.048 17.408-0.512 25.088 4.608 7.68 4.608 12.8 12.288 14.848 20.992l43.008 191.488c4.096 17.92-7.168 35.84-25.088 39.936-2.56 0.512-5.12 0.512-7.168 0.512z m-43.008-247.808c-1.536 0-3.584 0-5.12 0.512-12.288 2.56-20.48 15.36-17.408 27.648l43.008 191.488c2.56 12.288 15.36 20.48 27.648 17.408 12.288-2.56 20.48-15.36 17.408-27.648l-43.008-191.488c-1.536-6.144-5.12-11.264-10.24-14.336-3.584-2.048-7.68-3.584-12.288-3.584z" fill="#d81e06" p-id="1243"></path><path d="M619.008 809.984c15.36 3.584 30.208-6.144 33.792-21.504l43.008-191.488c3.584-15.36-6.144-30.208-21.504-33.792-15.36-3.584-30.208 6.144-33.792 21.504l-43.008 191.488c-3.584 15.36 6.144 30.208 21.504 33.792z" fill="#d81e06" p-id="1244"></path><path d="M625.152 815.616c-2.56 0-4.608-0.512-7.168-1.024-17.92-4.096-29.184-22.016-25.088-39.936l43.008-191.488c2.048-8.704 7.168-16.384 14.848-20.992s16.384-6.144 25.088-4.608c17.92 4.096 29.184 22.016 25.088 39.936l-43.008 191.488c-4.096 16.384-17.92 26.624-32.768 26.624z m-5.12-10.752c12.288 2.56 25.088-5.12 27.648-17.408l43.008-191.488c2.56-12.288-5.12-25.088-17.408-27.648-6.144-1.536-12.288-0.512-17.408 3.072-5.12 3.072-8.704 8.704-10.24 14.336l-43.008 191.488c-3.072 12.8 4.608 25.088 17.408 27.648z" fill="#d81e06" p-id="1245"></path><path d="M511.488 805.888c15.36 0 28.16-12.8 28.16-28.16v-196.096c0-15.36-12.8-28.16-28.16-28.16s-28.16 12.8-28.16 28.16v196.096c0 15.36 12.8 28.16 28.16 28.16z" fill="#d81e06" p-id="1246"></path><path d="M511.488 811.008c-18.432 0-33.28-14.848-33.28-33.28v-196.096c0-18.432 14.848-33.28 33.28-33.28s33.28 14.848 33.28 33.28v196.096c0 18.432-14.848 33.28-33.28 33.28z m0-252.416c-12.8 0-23.04 10.24-23.04 23.04v196.096c0 12.8 10.24 23.04 23.04 23.04s23.04-10.24 23.04-23.04v-196.096c0-12.8-10.24-23.04-23.04-23.04z" fill="#d81e06" p-id="1247"></path></svg>