<?xml version="1.0" standalone="no"?><!DOCTYPE svg PUBLIC "-//W3C//DTD SVG 1.1//EN" "http://www.w3.org/Graphics/SVG/1.1/DTD/svg11.dtd"><svg t="1616333193957" class="icon" viewBox="0 0 1024 1024" version="1.1" xmlns="http://www.w3.org/2000/svg" p-id="3785" xmlns:xlink="http://www.w3.org/1999/xlink" width="200" height="200"><defs><style type="text/css"></style></defs><path d="M905.6 804H732.8c-27.2 0-49.6-22.4-49.6-49.6 0-27.2 22.4-49.6 49.6-49.6h172.8c27.2 0 49.6 22.4 49.6 49.6 0 27.2-22.4 49.6-49.6 49.6z m0-148.8h-296c-27.2 0-49.6-22.4-49.6-49.6 0-27.2 22.4-49.6 49.6-49.6h296.8c27.2 0 49.6 22.4 49.6 49.6-0.8 28-23.2 49.6-50.4 49.6zM832 482.4H658.4c-68 0-123.2-55.2-123.2-123.2V185.6c0-68 55.2-123.2 123.2-123.2H832c68 0 123.2 55.2 123.2 123.2v172.8c0 68.8-55.2 124-123.2 124z m24.8-296.8c0-13.6-11.2-24.8-24.8-24.8H658.4c-13.6 0-24.8 11.2-24.8 24.8v172.8c0 13.6 11.2 24.8 24.8 24.8H832c13.6 0 24.8-11.2 24.8-24.8V185.6zM362.4 952H188.8c-68 0-123.2-55.2-123.2-123.2V655.2c0-68 55.2-123.2 123.2-123.2h172.8c68 0 123.2 55.2 123.2 123.2v172.8c0.8 68.8-54.4 124-122.4 124z m24.8-296.8c0-13.6-11.2-24.8-24.8-24.8H188.8c-13.6 0-24.8 11.2-24.8 24.8v172.8c0 13.6 11.2 24.8 24.8 24.8h172.8c13.6 0 24.8-11.2 24.8-24.8V655.2z m-24.8-172.8H188.8c-68 0-123.2-55.2-123.2-123.2V185.6c0-68 55.2-123.2 123.2-123.2h172.8c68 0 123.2 55.2 123.2 123.2v172.8c0.8 68.8-54.4 124-122.4 124z m24.8-296.8c0-13.6-11.2-24.8-24.8-24.8H188.8c-13.6 0-24.8 11.2-24.8 24.8v172.8c0 13.6 11.2 24.8 24.8 24.8h172.8c13.6 0 24.8-11.2 24.8-24.8V185.6z m271.2 668h247.2c27.2 0 49.6 22.4 49.6 49.6s-22.4 49.6-49.6 49.6H658.4c-27.2 0-49.6-22.4-49.6-49.6s22.4-49.6 49.6-49.6z" p-id="3786" fill="#d81e06"></path></svg>