<?xml version="1.0" standalone="no"?><!DOCTYPE svg PUBLIC "-//W3C//DTD SVG 1.1//EN" "http://www.w3.org/Graphics/SVG/1.1/DTD/svg11.dtd"><svg t="1616333181638" class="icon" viewBox="0 0 1024 1024" version="1.1" xmlns="http://www.w3.org/2000/svg" p-id="3532" xmlns:xlink="http://www.w3.org/1999/xlink" width="200" height="200"><defs><style type="text/css"></style></defs><path d="M831.2 973.6h-640c-81.6 0-148-66.4-148-148V383.2c0-81.6 66.4-148 148-148h100C303.2 124.8 397.6 38.4 511.2 38.4s208 86.4 220 196.8h100c81.6 0 148 66.4 148 148v443.2c-0.8 80.8-66.4 147.2-148 147.2z m-320-836.8c-59.2 0-108.8 42.4-120.8 98.4H632c-12-56-61.6-98.4-120.8-98.4zM880 383.2c0-27.2-22.4-49.6-49.6-49.6H732.8v24.8c0 27.2-22.4 49.6-49.6 49.6s-49.6-22.4-49.6-49.6v-24.8H388v24.8c0 27.2-22.4 49.6-49.6 49.6-27.2 0-49.6-22.4-49.6-49.6v-24.8H191.2c-27.2 0-49.6 22.4-49.6 49.6v443.2c0 27.2 22.4 49.6 49.6 49.6h640c27.2 0 49.6-22.4 49.6-49.6V383.2z m-245.6 417.6H388c-27.2 0-49.6-22.4-49.6-49.6 0-27.2 22.4-49.6 49.6-49.6h246.4c27.2 0 49.6 22.4 49.6 49.6-0.8 28-22.4 49.6-49.6 49.6z" p-id="3533" fill="#bfbfbf"></path></svg>