<?xml version="1.0" standalone="no"?><!DOCTYPE svg PUBLIC "-//W3C//DTD SVG 1.1//EN" "http://www.w3.org/Graphics/SVG/1.1/DTD/svg11.dtd"><svg t="1616333214759" class="icon" viewBox="0 0 1024 1024" version="1.1" xmlns="http://www.w3.org/2000/svg" p-id="4044" xmlns:xlink="http://www.w3.org/1999/xlink" width="200" height="200"><defs><style type="text/css"></style></defs><path d="M913.6 280L660 112c-88-73.6-216.8-73.6-303.2 0L104.8 277.6l-3.2 2.4C57.6 317.6 32 372 32 428.8v352c0 111.2 70.4 176 188.8 176h575.2c118.4 1.6 188.8-62.4 188.8-176v-352c0-56.8-25.6-111.2-71.2-148.8z m-34.4 483.2c-0.8 61.6-27.2 86.4-96 87.2H233.6c-70.4 0-96-26.4-96-87.2V432c0-30.4 13.6-61.6 38.4-82.4l239.2-152.8 3.2-1.6c50.4-44 129.6-44 180 0L840 351.2c24.8 20.8 38.4 52 38.4 82.4v329.6z" p-id="4045" fill="#d81e06"></path><path d="M508 480c-28.8 0-52.8 20.8-52.8 44.8v202.4c0 24 24 44.8 52.8 44.8 28.8 0 52.8-20.8 52.8-44.8V524c0-25.6-24-44-52.8-44z" p-id="4046" fill="#d81e06"></path></svg>